<?xml version="1.0" encoding="utf-8"?>
<!-- Generator: Adobe Illustrator 24.0.1, SVG Export Plug-In . SVG Version: 6.00 Build 0)  -->
<svg version="1.1" id="Layer_1" xmlns="http://www.w3.org/2000/svg" xmlns:xlink="http://www.w3.org/1999/xlink" x="0px" y="0px"
	 viewBox="0 0 391 169" style="enable-background:new 0 0 391 169;" xml:space="preserve">
<style type="text/css">
	.st0{fill:#231F20;}
	.st1{font-family:'PlayfairDisplay-Regular';}
	.st2{font-size:68.6515px;}
	.st3{fill:#FFFFFF;}
</style>
<text transform="matrix(1 0 0 1 122.3194 69.0122)" class="st0 st1 st2">Silver</text>
<text transform="matrix(1 0 0 1 122.3203 137.9019)" class="st0 st1 st2">Slippers</text>
<g>
	<path class="st0" d="M102.2,67.6c-1.2-1.1-2.5-1.9-4-2.6c0,0-5.7-1.9-7.2-3.2c-1.9-1.6-5.2-5.6-5.9-8c-2.1-7.5,0-31.2,0-31.2
		c0-1.3-1-2.3-2.2-2.3H40.6c-1.2,0-2.2,1-2.2,2.3v7.9c-1.7-1.6-3.7-2.7-5.9-3.2L23.3,25c-1.2-0.3-2.4,0.4-2.7,1.7
		c-0.1,0.4-0.1,0.9,0,1.3l1.9,5.7c1,3,2.9,5.5,5.5,7.3c-2.6,1.7-4.5,4.3-5.5,7.3l-1.9,5.7c-0.4,1.2,0.2,2.5,1.4,2.9
		c0.4,0.1,0.8,0.2,1.2,0l9.2-2.4c2.2-0.6,4.2-1.7,5.9-3.2c0,0,1.1,14.2,0,18.8c-0.4,1.8-3.3,6.7-3.3,6.7c-0.8,1.6-1.2,3.3-1.2,5.1
		c0,0,1.1,27.5,0.5,36.6c-0.2,3.6,3.4,24.8,5.5,32.2c0.8,2.7,2,6.4,13.3,6.4c7,0,9.8-2.6,12-4.4c2.5-2,14.3,1.5,19.8-7.6
		c6.1-10.2,5.7-14.8,7.1-23.3c2.2-13.4,1.4-21.7,11.6-32.3C109.6,83.4,108.6,73.2,102.2,67.6z"/>
</g>
<polygon class="st3" points="81.1,24 64.9,24 64.9,53.8 81.1,41.4 "/>
<rect x="41.8" y="24" class="st3" width="18.5" height="9.2"/>
<path class="st3" d="M50.6,37.9h9.7v4.6h-9.7C51.2,41,51.2,39.4,50.6,37.9z"/>
<path class="st3" d="M60.3,61.6V47.1H41.8c-2.6,10.8,8.8,15,12.2,19.3L60.3,61.6z"/>
<polygon class="st3" points="81.1,47.2 64.9,59.6 64.9,65.4 81.1,52.9 "/>
<path class="st3" d="M34.2,37.9h2.7c-0.8-4.8-7.2-7.5-12.4-8.3C25.3,33.2,28.8,37.6,34.2,37.9z"/>
<path class="st3" d="M25.1,49l-0.6,1.8c4.7-0.9,10.5-2.2,12.4-8.3C32.7,41.9,27.3,43.7,25.1,49z"/>
<path class="st3" d="M64.3,116.8c-8.1,21.3-23.4,8.4-27.1-5.9c-0.1,8.9,3.8,41.3,9.4,42.5c6.1,1.3,13.8,1.4,14.4-3.5
	C62.4,139.9,65.6,124.4,64.3,116.8z"/>
<path class="st3" d="M97.5,68.9l-5.8-2.5c-5.4,14.4-10.8,40.6-22.6,51.8c1,2.4-3,27.5-3.2,30.6c21.4,2.7,22.5-19,24.7-37.9
	c1.6-13.7,2.6-14.1,10.9-24.6c0,0,0,0,0,0C106.2,78,104.5,71.8,97.5,68.9z"/>
<path class="st3" d="M49.6,122.9C65.3,129,65.8,89.7,53.8,84L37.2,96.8C37.8,102.5,43.7,120.6,49.6,122.9z"/>
<path class="st3" d="M76.6,97.2L64.9,86.6c-0.5,1.1,3.3,24.5,3.4,25.6C71.9,107.7,74.8,102.6,76.6,97.2z"/>
<polygon class="st3" points="81.2,83.5 87.8,63.7 83,57.3 66.4,70.1 "/>
<path class="st3" d="M79.6,88.3L64.9,75c-2.6,6.7,11.1,14.3,13.3,17.4L79.6,88.3z"/>
<polygon class="st3" points="60.3,67.5 37.2,85.2 37.2,91 60.3,73.2 "/>
<path class="st3" d="M47.1,71.7l3.2-2.4l-8.5-7.7C40.4,67.1,44.9,69.6,47.1,71.7z"/>
<polygon class="st3" points="37.7,79 41,72.4 43.4,74.6 "/>
<polygon class="st3" points="60.3,79 60.3,83.7 57.5,81.2 "/>
<circle class="st3" cx="44.1" cy="40.2" r="2.3"/>
</svg>
