<?xml version="1.0" encoding="utf-8"?>
<!-- Generator: Adobe Illustrator 24.0.1, SVG Export Plug-In . SVG Version: 6.00 Build 0)  -->
<svg version="1.1" id="Layer_1" xmlns="http://www.w3.org/2000/svg" xmlns:xlink="http://www.w3.org/1999/xlink" x="0px" y="0px"
	 viewBox="0 0 1119 485" style="enable-background:new 0 0 1119 485;" xml:space="preserve">
<style type="text/css">
	.st0{fill:#231F20;}
	.st1{font-family:'PlayfairDisplay-Regular';}
	.st2{font-size:205.9546px;}
	.st3{fill:#FFFFFF;}
</style>
<text transform="matrix(1 0 0 1 337.1211 193.5586)" class="st0 st1 st2">Silver</text>
<text transform="matrix(1 0 0 1 337.125 400.2285)" class="st0 st1 st2">Slippers</text>
<g>
	<path class="st0" d="M276.9,189.2c-3.6-3.2-7.6-5.8-11.9-7.7c0,0-17.1-5.8-21.7-9.5c-5.8-4.7-15.6-16.9-17.6-24.1
		c-6.3-22.5,0-93.5,0-93.5c0-3.8-3-6.8-6.7-6.8h-127c-3.7,0-6.7,3.1-6.7,6.8v23.8c-5-4.7-11.1-8-17.6-9.7l-27.5-7
		c-3.6-0.9-7.2,1.3-8.1,5c-0.3,1.3-0.3,2.6,0.1,3.8l5.6,17.1c3,9,8.8,16.6,16.6,21.8c-7.8,5.1-13.6,12.8-16.6,21.8l-5.6,17.1
		c-1.2,3.6,0.7,7.5,4.2,8.6c1.2,0.4,2.5,0.5,3.7,0.1l27.5-7.1c6.6-1.7,12.6-5,17.6-9.7c0,0,3.2,42.6,0,56.3
		c-1.3,5.5-9.8,20.1-9.8,20.1c-2.3,4.7-3.5,10-3.5,15.3c0,0,3.3,82.5,1.5,109.9c-0.7,10.8,10.2,74.3,16.6,96.7
		c2.3,8.2,5.9,19.2,39.9,19.2c20.9,0,29.4-7.9,36.1-13.3c7.6-6.1,43,4.5,59.3-22.8c18.3-30.6,17.1-44.3,21.4-70
		c6.7-40.2,4.1-65.1,34.7-96.8C299,236.6,295.8,206.1,276.9,189.2z"/>
</g>
<polygon class="st3" points="213.5,58.5 164.9,58.5 164.9,147.9 213.5,110.6 "/>
<rect x="95.6" y="58.5" class="st3" width="55.5" height="27.7"/>
<path class="st3" d="M122.1,100.1h29V114h-29C123.8,109.5,123.8,104.6,122.1,100.1z"/>
<path class="st3" d="M151.1,171.4v-43.5H95.6c-7.7,32.3,26.4,44.9,36.6,58L151.1,171.4z"/>
<polygon class="st3" points="213.5,128.1 164.9,165.4 164.9,182.6 213.5,145.3 "/>
<path class="st3" d="M72.7,100.1h8.2c-2.3-14.5-21.6-22.6-37.1-24.9C46,86.1,56.5,99.3,72.7,100.1z"/>
<path class="st3" d="M45.6,133.5l-1.8,5.3c14.1-2.8,31.6-6.6,37.1-24.9C68.4,112.4,52,117.6,45.6,133.5z"/>
<path class="st3" d="M163,337c-24.2,63.9-70.2,25.1-81.3-17.7c-0.3,26.7,11.3,124,28.1,127.5c18.3,3.8,41.4,4.1,43.3-10.6
	C157.2,406.1,167.1,359.8,163,337z"/>
<path class="st3" d="M262.6,193.1l-17.3-7.4c-16.3,43.1-32.5,121.8-67.9,155.5c3.1,7.3-8.9,82.6-9.7,91.7
	c64.2,8.1,67.4-56.9,74.1-113.6c4.9-41.2,7.8-42.4,32.7-73.7c0,0,0,0,0,0C288.8,220.5,283.6,201.8,262.6,193.1z"/>
<path class="st3" d="M118.9,355.1c47.1,18.4,48.7-99.5,12.6-116.5l-49.8,38.3C83.6,294.1,101.3,348.2,118.9,355.1z"/>
<path class="st3" d="M200,278.1l-35-31.8c-1.4,3.4,10,73.6,10.1,76.8C186,309.7,194.4,294.5,200,278.1z"/>
<polygon class="st3" points="213.6,237.1 233.5,177.6 219.1,158.4 169.2,196.8 "/>
<path class="st3" d="M208.9,251.5l-43.9-39.9c-7.9,20.1,33.4,42.9,39.8,52.1L208.9,251.5z"/>
<polygon class="st3" points="151.1,188.9 81.7,242.2 81.7,259.4 151.1,206 "/>
<path class="st3" d="M111.6,201.7l9.5-7.3l-25.5-23.2C91.4,187.7,104.8,195.5,111.6,201.7z"/>
<polygon class="st3" points="83.3,223.6 93.2,203.8 100.5,210.4 "/>
<polygon class="st3" points="151.1,223.5 151.1,237.6 142.7,230 "/>
<circle class="st3" cx="102.5" cy="107.1" r="6.9"/>
</svg>
