<?xml version="1.0" encoding="utf-8"?>
<!-- Generator: Adobe Illustrator 24.0.3, SVG Export Plug-In . SVG Version: 6.00 Build 0)  -->
<svg version="1.1" id="Layer_1" xmlns="http://www.w3.org/2000/svg" xmlns:xlink="http://www.w3.org/1999/xlink" x="0px" y="0px"
	 viewBox="0 0 538 524" style="enable-background:new 0 0 538 524;" xml:space="preserve">
<style type="text/css">
	.st0{fill:#E2F7F0;}
	.st1{fill:#EFDABD;}
	.st2{fill:#E87070;}
	.st3{fill:#EF9292;}
	.st4{fill:#583B49;}
	.st5{fill:#72B7A0;}
	.st6{fill:#91CEBB;}
	.st7{fill:#C37D7C;}
	.st8{fill:#FFD1D1;}
	.st9{fill:#FFB6B6;}
	.st10{fill:#E2E2E2;}
	.st11{fill:#9E6666;}
	.st12{fill:#3F3333;}
	.st13{fill:#281B23;}
	.st14{fill:#FFFFFF;}
	.st15{fill:#C8F7EA;}
	.st16{fill:#442E3A;}
	.st17{fill:#7F5D6F;}
	.st18{fill:#D3D3D3;}
</style>
<g>
	<polygon class="st0" points="35.8,145.8 187.8,69.3 264.3,263.7 254.8,265.7 179.8,116.1 65,176 113.8,345.4 103.2,346.4 	"/>
	<polygon class="st0" points="387.8,98.5 503.3,160.8 421.4,326.6 410.5,318.2 462.8,186.5 371,151.9 	"/>
	
		<ellipse transform="matrix(0.5558 -0.8313 0.8313 0.5558 -79.585 527.7878)" class="st0" cx="454.1" cy="338.4" rx="35.9" ry="49.8"/>
	
		<ellipse transform="matrix(0.7728 -0.6346 0.6346 0.7728 -212.2378 125.5858)" class="st0" cx="69.3" cy="359.2" rx="48.8" ry="35.2"/>
	
		<ellipse transform="matrix(0.7728 -0.6346 0.6346 0.7728 -128.8178 204.2462)" class="st0" cx="220.9" cy="282.1" rx="48.8" ry="35.2"/>
	<polygon class="st0" points="399.7,43.7 462.7,25.4 491.5,113.3 484.7,114.1 457.3,48.8 412.4,68.6 	"/>
	
		<ellipse transform="matrix(0.9827 -0.1853 0.1853 0.9827 -10.8657 95.8701)" class="st0" cx="507.3" cy="106" rx="24.9" ry="17.9"/>
	<polygon class="st0" points="72.3,7.6 130.8,30.4 96.3,99.3 93.4,97.1 115.9,39.8 71.3,23.1 36.9,78.1 34,75.5 	"/>
	<ellipse transform="matrix(0.1506 -0.9886 0.9886 0.1506 -49.7756 80.7798)" class="st0" cx="22.1" cy="69.4" rx="13" ry="18"/>
	<ellipse transform="matrix(0.1506 -0.9886 0.9886 0.1506 -22.3756 157.7195)" class="st0" cx="80.6" cy="91.9" rx="13" ry="18"/>
	<g>
		<ellipse class="st1" cx="256" cy="463.3" rx="198.1" ry="13"/>
		<path class="st2" d="M299.6,176c-0.7,0.2-1.5,0.5-2.4,0.8c-4.3-6.6-13.1-11.6-17.9-13.9c1.5-3.2,2-5,2-5l-2.9-1.9
			c6.3-3,12.1-5.5,15.8-7c-1,4.1-1.9,10.7,0.4,17.2C296.2,170.8,298,174,299.6,176z"/>
		<path class="st3" d="M294.6,166.2c-2.3-6.5-1.4-13.1-0.4-17.2c2.7-1.1,4.3-1.7,4.3-1.7l5.5,27.4c0,0-1.7,0.5-4.4,1.4
			C298,174,296.2,170.8,294.6,166.2z"/>
		<path class="st3" d="M309.2,233.4c-0.1,3.8-8.2,13.5-11.9,14.7c-3.7,1.2-5.2-10.8-7.3-14.3c-2.1-3.5-7-1.1-8.3-6.1
			c-0.3-1.2-2.6-3.9-5.9-7.4c-1.2-1.3-2.5-2.6-3.9-4.1c-4.1-4.3-8.9-9.4-13.2-14.5c-0.6-0.7-1.2-1.4-1.8-2.1
			c-6-7.3-10.5-14.5-10.1-19.5c0.2-2.6,2.3-5.5,5.5-8.3c6.2-5.6,16.7-11.3,26.1-15.8h0l2.9,1.9c0,0-0.5,1.8-2,5
			c4.8,2.3,13.5,7.3,17.9,13.9c-8.6,2.8-22.5,7.6-25,9.4c-0.1,0-0.1,0.1-0.1,0.1c-0.3,0.3-0.4,0.8-0.4,1.4
			c0.2,3.9,6.3,13.2,11.2,19.8c0.3,0.5,0.7,0.9,1,1.3c1.9,2.5,3.6,4.4,4.5,5.3c3.8,3.7,6.6,2.4,10.9,4.8
			C303.5,221.3,309.4,229.6,309.2,233.4z"/>
		<path class="st4" d="M150.3,449.6c-1.7,4.7-2.9,11.8-3.9,18c-0.7,4.5-1.4,8.5-2.1,10.8c-1.7,5.5-7.4,20-18.5,16
			c-10.5-3.8-14.6-17.9-7.4-35.2c0.4-0.9,0.8-1.8,1.2-2.7c7.8-16.2,10.9-23.8,13.8-24.9c-0.1,0.5-0.1,1-0.1,1.5
			c0.1,2.6-6.6,16.7-7.5,22.7c-0.9,6,11.9,12.4,16,8.3c3.1-3.1,6.9-18.6,8.6-26.3C151.4,440.3,152.2,444.5,150.3,449.6z"/>
		<path class="st4" d="M216.5,503.4c-11.5,3.9-17.6-7.1-31.2-19.3c-13.6-12.3-11.7-12.5-9.7-19.3c0.1-0.3,0.2-0.5,0.2-0.8
			c1.2-3.7,3.1-6.2,4.3-7.6c0.6,1.4,2.2,3.5,6.8,5c7.5,2.4,9.4,0,9.4,0s0.5-0.9,1.5-2.4c0.7,0.9,3.1,3.5,6.1,7
			c8.6,9.8,23,26.5,24.2,29C230.1,498.5,228.1,499.5,216.5,503.4z"/>
		<path class="st5" d="M250,268.1c0,0-0.8,16.6-7.7,33.4c-11.6-7.6-24.5-15.1-31.9-19.4C243.2,276.2,250,268.1,250,268.1z"/>
		<path class="st6" d="M202.1,344.8l-4.5,24.5v0c-12.3,17.2-24.8,34.6-33.7,46.9c-14.3-0.5-18.9-13.8-18.9-13.8
			c8.5-23.2,21.5-57.6,31.4-76.6L202.1,344.8z"/>
		<path class="st6" d="M210.4,282.2c1.9,1.1,4.1,2.3,6.5,3.8h0c7.3,4.3,16.7,9.9,25.4,15.6c-1.2,2.9-2.6,5.9-4.2,8.8
			c-2.9,5.1-10.3,16.1-19.7,29.6c-5.1,7.4-10.9,15.5-16.8,23.8l5.2-22c0,0-8.7-5.3-19.6-12.3c3.1-6,5.4-10.4,6.3-12.2
			c0.3-0.6,0.5-0.9,0.5-0.9s0.8-14.4,1.8-28.3c0.1-1.6,0.2-3.2,0.4-4.8c0.2-2.4,0.4-4.6,0.6-6.8c0.7-7.8,1.5-13.7,2.1-13.7
			c1.9,0,51,5.3,51,5.3S243.2,276.2,210.4,282.2z"/>
		<path class="st6" d="M165.4,274.3c-9.9-5.5-15.8-11.4-15.8-11.4l15,4.3l32.3,9.4l7.4,2.1c0,0,2.4,1.3,6.2,3.5
			c-0.4,0.1-0.9,0.2-1.3,0.2c-4.4,0.8-8.7,1-12.8,0.9C184,282.8,173.4,278.7,165.4,274.3z"/>
		<path class="st6" d="M220.2,421.3c0,0-6.2,1.3-16.9-2.6c-10.7-4-12.4-9.4-12.4-9.4l9.5-39.9l1.3-5.6l5.2-22c0,0-8.7-5.3-19.6-12.3
			c-0.7-0.5-1.5-0.9-2.2-1.4c-8.2-5.2-17.4-11.2-24.9-16.5c-13.8-9.7-12.8-32.5-11.5-43.1c7,5.7,23.5,17.9,37.3,19.3
			c3.3,0.3,6.7,0.4,9.9,0.4c8.5-0.1,16.2-1.2,21-2.1h0c7.3,4.3,16.7,9.9,25.4,15.6c8.6,5.6,16.5,11.2,21.1,15.5
			C272.2,325.5,242.8,381.6,220.2,421.3z"/>
		<path class="st7" d="M169,201.7c0,0-1.7,1.2-5.8,1.9c-0.4,3.6-1.2,8.3-2.5,11.6c-0.6,1.6-4.3,4.8-9.5,8.7c0.2-1,0.3-2.1,0.5-3.1
			c1-5.4,2.4-10.1,4.2-13.4c0.3-0.5,0.5-0.9,0.8-1.4c0.4-0.6,0.7-1.2,1.1-1.9c0.8-1.6,1.4-3.7,1.8-6c3.9-18.6,0.2-55.8,0.2-55.8
			c16-0.8,12.5,36.2,10.2,52.2C169.5,198.9,169,201.7,169,201.7z"/>
		<path class="st8" d="M253.1,180c0,0.5-0.1,0.9-0.2,1.3c0,0,0,0,0,0c-0.3,2.1-1.1,3.7-1.8,5.2c-1.6,3.4-3.4,6.4-1.3,14.1
			c3.6,12.7,0,67.5,0,67.5s-5.6,6.6-31.1,12.4c-2.6,0.6-5.4,1.2-8.5,1.7c-0.4,0.1-0.9,0.2-1.3,0.2c-4.4,0.8-8.7,1-12.8,0.9
			c-12.2-0.5-22.8-4.6-30.8-9.1c-0.4-2.1-0.6-4.5-0.9-7.1c-0.3-2.9-0.4-6.1-0.5-9.4c-0.5-15.9,0.6-34.7,1.6-40.2
			c1.8-9.1,2.8-9.5,9.5-9c6.8,0.5,12.7-6.8,12.7-6.8s-8.7,3.5-13.4,2.3c-4.8-1.3,0.8-16.8,1.5-33.1s-3.3-24.4-7-28.6
			c-3.7-4.3,23.6-15.8,23.6-15.8l-0.3-0.1c2-0.8,3.2-1.2,3.2-1.2c15.5-3.3,30.6,0.2,39.2,3c0.2,0.1,0.3,0.1,0.5,0.2
			c0.6,0.2,1.1,0.5,1.6,0.7v0l0.2,0.1l0.7,0.5l0.4,0.2c0,0,0.1,0,0.1,0.1c1.2,0.9,2.2,2,2.9,3.3c0.7,1.2,1.1,2.4,1.4,3.8
			c2.1,12.5,10.3,31.7,10.8,40.4c0,0.1,0,0.2,0,0.3C253.2,178.6,253.2,179.3,253.1,180z"/>
		<path class="st7" d="M238,129.9l-1.1-0.7l-0.2-0.1c0.1,0,0.1,0.1,0.2,0.1C237.2,129.4,237.6,129.7,238,129.9z"/>
		<path class="st9" d="M183.7,238.2c-0.6-0.1,22.4,6.8,36.8,2.1S238,229,238,229S209.3,241.6,183.7,238.2z"/>
		<path class="st3" d="M208,158.1c-9.8,0.2-15.8-28.9-15.4-31.6c0.4-2.8,0.9-11.4,0.9-11.4l3.5,0l20.6-0.1c0,0-0.1,0,0,2.2
			c0,1.4,0.1,3.6,0.3,7.3c-0.8,0-1.6,0-2.5,0c-6.8-0.3-11.8-2.1-15.3-4c0,0,8.1,9.2,18.1,9.1C218.8,149.1,208,158.1,208,158.1z"/>
		<path class="st10" d="M168,98.6c-6.9,2.8-16.2-5.9-16.2-5.9s2.1,0.9,6.6-4.9c4.5-5.8-2.6-19.4,8.5-28.3c6.2-4.9,11.9-3.4,15.8-1.2
			C170.2,61.3,165.3,82.2,168,98.6z"/>
		<path class="st10" d="M187.8,62.6c0,0-9.8,25.1-16.6,33.5c-0.6,0.8-1.3,1.4-2,1.9c-1.5-15.9,3.6-34.3,15.6-36.7c0,0,0.2-0.4,0.6-1
			C186.9,61.6,187.8,62.6,187.8,62.6z"/>
		<path class="st3" d="M434.2,200.4c-1.5,4-15.9,14.3-23.8,19.7c-3,2.1-5.1,3.4-5.1,3.4l-3.5-18l-1-5.1c0,0,1.9-0.7,3.9-1.8
			c0.6-0.3,1.1-0.6,1.6-0.9c0.5-0.3,1-0.6,1.4-1c0.1,1.2,0.2,2.3,0.3,3.2l0,0.3c1.7-1.1,3.6-2.7,3.4-4.3c-0.3-2.7,2.3-2.5,9.2-4.4
			c6.8-1.8,8.7-6.8,8.8-7.1c-1.7,1.4-4.3,2.9-8.6,3.9c-2.4,0.6-4.8,0.6-7,0.3c-1-0.1-2-0.4-3-0.7c0,0,0,0,0,0
			c-1.3-0.5-2.6-1.1-3.7-1.9c0,0.5,0.1,1.1,0.1,1.6c-0.2-0.6-0.3-1.2-0.4-1.8c-0.5-2.3-0.8-4.2-0.8-4.2l0.8-0.1l10.3-1l9.6-1
			c0,0,1.3,2,2.8,4.9c0,0,0,0,0,0C432.1,189.5,435.5,196.9,434.2,200.4z"/>
		<path class="st4" d="M258.6,449.7c0,0-5.7,1.5-7.5,5.7c-1.9,4.1-18.5,43.9-16,50.5c2.4,6.6,2.8,11.3,13.5,12.4
			c10.6,1.1,20.8-35,25.9-39.9c5.1-4.9,6.7-17.7,1.2-19.8C270.2,456.5,258.6,449.7,258.6,449.7z"/>
		<path class="st4" d="M334.2,427.3c0,0-3.2-1.7-7.9,1.7s-10.6,8-8.6,12.8c2,4.9,13.2,24.8,28.1,24.6s39-1.1,39-1.1
			s-5.5-12.9-14.3-15.4c-8.8-2.5-12.4,0.9-12.4,0.9s-3.9-9.6-7.8-11.8C346.6,436.9,334.2,427.3,334.2,427.3z"/>
		<path class="st3" d="M349.8,426.9c3.6,2.3,6.9,3.6,9.7,4.2l-8.2,11.5c0,0-5.8,2.3-13.6-1.3c-7.7-3.6-7-10.7-7-10.7l7.9-13.4
			C341.1,419.9,344.8,423.6,349.8,426.9z"/>
		<path class="st3" d="M366,422l-3.4,4.8c-2.9-1.1-6.2-2.8-9.8-5.4c-4.7-3.4-8.2-6.8-10.9-9.9l2.8-4.8L366,422z"/>
		<path class="st3" d="M274.5,443.3c4.2,1.5,8.1,2.3,11.3,2.8c-0.3,1-0.6,1.9-0.9,2.7c-1.9,5.1-2.6,10.9-5.8,12.1
			c-3.2,1.1-17.3,38.4-26.9,34.5s3.4-45.4,6.4-49.7c1.3-1.9,2.9-5.8,4.3-9.6C265.2,438.4,269,441.3,274.5,443.3z"/>
		<path class="st3" d="M289.1,434.5c0,0-0.7,2.5-1.6,5.7c-2.9-0.3-6.2-1.1-10.1-2.5c-5.4-2-9.7-4.6-12.9-7c0.8-2.5,1.4-4.3,1.4-4.3
			L289.1,434.5z"/>
		<path class="st7" d="M317.4,253.8l2.6-7.2l79.6,2.5l4.4,0.1c0,0,0.7,1,1.9,2.9c0.7,1,1.5,2.2,2.4,3.7c-1.6,1.1-5.3,2-10.4,2.8
			c-16.1,2.5-45.8,3.2-61.7-1.1C336.3,257.6,325.7,258.1,317.4,253.8z"/>
		<path class="st7" d="M438.3,326.5c-0.5,2-1.5,4.7-2.9,7.8c-12.7,27.7-58.5,93.5-58.5,93.5s-3.6,1.6-9.8,0.3
			c-1.4-0.3-2.9-0.7-4.6-1.3c-2.9-1.1-6.2-2.8-9.8-5.4c-4.7-3.4-8.2-6.8-10.9-9.9c-1.3-1.5-2.4-3-3.3-4.3c0,0,0,0,0,0
			c-3.1-4.5-4.2-7.6-4.2-7.6s52-69.3,48.6-77.2c-3.3-7.8-20.9-34.6-21.4-35.4c0,0,0,0,0,0s0,0,0,0c0,0,0,0,0,0c0,0,0,0,0,0.1
			l-60.3,150.6c0,0-2.4,1.9-7.4,2.5c-0.6,0.1-1.2,0.1-1.9,0.2c-1.3,0.1-2.7,0-4.3-0.2c-2.9-0.3-6.2-1.1-10.1-2.5
			c-5.4-2-9.7-4.6-12.9-7c-1.2-0.9-2.2-1.8-3.1-2.7c-4-3.8-5.5-6.9-5.5-6.9l31.9-86.9l3.4-9.2l24.6-67.1c3.1,1.4,9.5,4.5,15.1,4.1
			c7.5-0.6,31.1,8.7,50.7,4.9c12.7-2.4,22.8-6.2,28.2-8.5c8.9,14.2,25.1,41.9,28.3,59.2C438.8,321,438.9,324.1,438.3,326.5z"/>
		<path class="st4" d="M404.6,133.3c0,0,1.1,27.2,2.3,48.3c-2.2-4.4-4.7-11.2-6-20.6C398.2,142.3,404.6,133.3,404.6,133.3z"/>
		<path class="st4" d="M411.4,243.2c-0.2,4.7-0.6,8.6-1.7,10.8c-0.3,0.7-0.7,1.3-1.2,1.7c-0.1,0.1-0.2,0.1-0.2,0.2
			c-1.6,1.1-5.3,2-10.4,2.8c-16.1,2.5-45.8,3.2-61.7-1.1c0,0-10.6,0.5-18.9-3.7c-1-0.5-1.9-1-2.8-1.7c-2.1-1.5-3-4.7-3.1-9.1
			c-0.1-5.7,1-13.2,2.4-21c0-0.1,0-0.2,0-0.3c0-0.1,0-0.1,0-0.2c0,0,0-0.1,0-0.1c0-0.1,0-0.1,0-0.1c0,0,0,0,0,0
			c1.1-6.1,2.2-12.4,3-18c0.5-3.8,0.8-7.3,0.7-10.3c0-0.8,0-1.7,0-2.7c-0.1-4.7,0-10.8,0.2-17.2c10.9-15.3,6.5-42.7,6.5-42.7
			l0.6-0.7l0,0c0.2-0.2,0.4-0.3,0.6-0.4c1.7-1,3.8-2,6.4-3.1c8.2-3.3,20.8-6.5,36.4-7.1c0,0,12.7,3,25.7,8.7
			c3.5,1.6,7.1,3.3,10.4,5.3c-9.9-2.6-6.3,27.2-3.9,42.4c0.3,1.8,0.9,3.6,1.8,5.1c1.1,1.9,2.5,3.6,4.3,4.9c0.1,0.1,0.2,0.2,0.3,0.2
			c0,0.5,0.1,1.1,0.1,1.6c0,0.6,0.1,1.3,0.1,1.9c0.2,2.6,0.3,5.1,0.5,7.2c0.1,1.2,0.2,2.3,0.3,3.2l0,0.3c0.2,2.2,0.4,3.9,0.6,4.9
			c0.4,2.3,1,6.5,1.5,11.5c0.1,1.1,0.2,2.2,0.3,3.4c0.4,3.9,0.7,8.1,0.9,12.2C411.4,236.1,411.5,239.8,411.4,243.2z"/>
		<path class="st6" d="M317.9,173.3l-14.9,6.3c0,0-1.5-0.8-3.5-3.5c-1.5-2.1-3.3-5.2-5-9.8c-2.3-6.5-1.4-13.1-0.4-17.2
			c0.6-2.6,1.4-4.3,1.4-4.3l28.9-14.1C324.5,130.6,328.8,157.9,317.9,173.3z"/>
		<path class="st3" d="M369.4,110v3.2h0c-0.2,0.2-0.5,0.4-0.8,0.6c-0.1,0-0.1,0.1-0.2,0.1c0,0,0,0,0,0c-1.5,1-3.4,2-5.6,3
			c-5.9,2.7-13.2,5-15.2,4.6c-0.4-0.1-0.8-0.2-1.1-0.3c-0.4-0.1-0.7-0.2-0.9-0.3c-0.1-1.4-0.1-2.2-0.1-2.2l16.9-6.1L369.4,110z"/>
		<path class="st3" d="M369.4,113.2v7.4c0,7.4-13.2,45.6-13.2,45.6s0,0,0,0c-3.5-3.5-8.3-30.4-8.5-36.3c-0.2-5.9,4.2-4.6,10.7-7.3
			C364.8,119.9,369.4,113.2,369.4,113.2z"/>
		<circle class="st11" cx="373.3" cy="39.8" r="3.8"/>
		<path class="st12" d="M383.6,85.2c2.1,9.3-0.5,17.2-4.5,21.7c-4,4.5-9.7,6.3-9.7,6.3v0h0c-0.2,0.2-0.5,0.4-0.8,0.6
			c-0.1,0-0.1,0.1-0.2,0.1c0,0,0,0,0,0c-1.5,1-3.4,2-5.6,3c-5.9,2.7-13.2,5-15.2,4.6c-0.4-0.1-0.8-0.2-1.1-0.3
			c-0.4-0.1-0.7-0.2-0.9-0.3c-1.1-0.3-2.1-0.4-5.8-0.1c0,0-0.1,0-0.1,0c-0.4,0-0.8,0-1.2-0.1c-1.5-0.4-3.1-1.6-4.7-3.2c0,0,0,0,0,0
			c-3.6-1.9-5.7-4.8-6.8-7.2c-1.1-2.2-1.3-3.9-1.3-3.9c-1.1-2.8-1.5-6.2-1.5-9.6c2.3,1,5,1.5,5.5-0.6c1-3.9,7.4-3.3,13.1-3.3
			c5.7-0.1,6.2,6.9,11.5,6.6c5.1-0.3,5.9-7.4,6-8c0-0.2,0-0.4,0-0.5c-0.6-7.4,2.9-16.1,0-18.7c-2.9-2.6-12.1,2-15.6,0
			c-3.5-2-3-0.8-11.8-1.8c-2.4-0.3-4.3-0.9-5.8-1.9c-6.3-3.9-5.3-12.3-5.3-12.3s37.6-5.7,38.1-5.9c0.5-0.2,25.8,4.9,25.8,4.9
			s2.3,1.8,3,11.8C389.4,77.2,383.6,85.2,383.6,85.2z"/>
		<path class="st12" d="M369.4,113.2C369.4,113.2,369.4,113.2,369.4,113.2c-0.1,0.1-0.4,0.3-0.9,0.7
			C368.8,113.7,369.2,113.4,369.4,113.2z"/>
		<path class="st3" d="M360.3,91c0,0.2,0,0.4,0,0.5c-0.1,0.7-0.9,7.8-6,8c-5.4,0.3-5.9-6.7-11.5-6.6c-5.7,0-12.1-0.5-13.1,3.3
			c-0.6,2.1-3.2,1.5-5.5,0.6c0-9,2.9-18.1,2.9-18.1c-0.3-3.7-0.1-7.4,0.1-10c1.5,0.9,3.4,1.6,5.8,1.9c8.8,1,8.3-0.3,11.8,1.8
			c3.5,2,12.7-2.6,15.6,0C363.2,74.9,359.6,83.6,360.3,91z"/>
		<path class="st3" d="M364.4,85.4c0.1-2,1.1-3.8,2.9-4.8c1.3-0.7,2.8-1.1,3.8,0.2c2.1,2.7,3.5,9.9-1.3,11.7
			C365.4,94,364.2,91.8,364.4,85.4z"/>
		<path class="st7" d="M321.8,56.3c0,0,14.3,2.9,35.8,3.4c21.5,0.5,28-4.4,28-4.4s6.4-10-3.5-14.1s-24.4-4.1-33.2-2
			C340.2,41.4,315.2,55.2,321.8,56.3z"/>
		<path class="st11" d="M385.3,49.3c0,0-5.8,2.6-15.7,4.1S351,52.4,351,52.4S375,52.3,385.3,49.3z"/>
		<path class="st2" d="M365.9,87.5c0,0,0.9-6.4,3.3-5.7s3.6,6.9,1.2,8.5C368.1,92,366,91,365.9,87.5z"/>
		
			<ellipse transform="matrix(4.329912e-02 -0.9991 0.9991 4.329912e-02 236.1739 409.2198)" class="st13" cx="331.8" cy="81.3" rx="2.7" ry="1.2"/>
		
			<ellipse transform="matrix(4.329912e-02 -0.9991 0.9991 4.329912e-02 245.6642 420.0309)" class="st13" cx="342.1" cy="81.7" rx="2.7" ry="1.2"/>
		<path class="st2" d="M333.8,90.4c0,0,0.1,1.3,2.4,1.4c2.3,0,2.6-1.4,2.6-1.4L333.8,90.4z"/>
		<path class="st14" d="M331.2,103.8c-1.1-1.7,0.2-3.9,2.2-3.7c1.3,0.1,3,0.2,4.9,0c3.9-0.3,7.1-1.6,7.3,0.9s-1.7,6.7-7.9,6
			C334.4,106.8,332.3,105.4,331.2,103.8z"/>
		<path class="st2" d="M339.7,77.5c0,0,0.9-1.1,2.5-1.1c1.6,0.1,4.4,2.3,4.4,2.3s-2.1-3.6-4.4-3.6C339.9,75,339.7,77.5,339.7,77.5z"
			/>
		<path class="st2" d="M334.2,77.5c0,0-0.9-1.1-2.5-1.1c-1.6,0.1-4.4,2.3-4.4,2.3s2.1-3.6,4.4-3.6C334.1,75,334.2,77.5,334.2,77.5z"
			/>
		<path class="st4" d="M325.1,129.9l-0.6,0.7C324.7,130.3,324.9,130.1,325.1,129.9z"/>
		<path class="st6" d="M431.9,181.3c0,0-0.5,1.5-2.5,3.2l0,0c-1.7,1.4-4.3,2.9-8.6,3.9c-2.4,0.6-4.8,0.6-7,0.3c-1-0.1-2-0.4-3-0.7
			c0,0,0,0,0,0c-1.3-0.5-2.6-1.1-3.7-1.9c-0.1-1.4-0.2-2.9-0.2-4.4c0,0,0-0.1-0.1-0.1c-0.2-0.4-0.4-0.7-0.6-1.1
			c-2-4.4-4.2-10.8-5.4-19.4c-2.6-18.7,3.8-27.7,3.8-27.7s16.8,7.8,20.8,23.4C429.4,172.3,431.9,181.3,431.9,181.3z"/>
		<path class="st3" d="M235.7,100.7c-0.1,0.5-0.1,1-0.2,1.5c-1.7,8.9-3.3,9.2-3.3,9.2s-0.5,7.2-6.7,10.9c-1.9,1.2-4.4,2-7.7,2.2
			c-0.8,0-1.6,0-2.5,0c-6.8-0.3-11.8-2.1-15.3-4c-2-1.1-3.5-2.2-4.6-3.1c0.6-0.7,1-1.5,1.5-2.3c5-9.7,1.4-26.7,1.3-27.3
			c0.1,0.2,2,2,13.2,0.9c11.7-1.2,20.8-7.3,20.8-7.3s0.7,3.9,0.4,6.3C232.6,87.6,236.7,92.6,235.7,100.7z"/>
		<path class="st10" d="M240.8,84.6c1.8,2.5,2.9,13.6-5,16.1c0.2-1.3,0.2-2.6,0.1-3.7c-0.4-5.8-3.2-9.3-3.2-9.3
			c0.2-2.4-0.4-6.3-0.4-6.3s-0.4,0.3-1.3,0.8c-2.9,1.7-10.4,5.7-19.5,6.5c-11.2,1.1-13-0.7-13.2-0.9c0.1,0.7,4.4,20.7-2.8,29.6
			c-2.3,2.8-5.6,4.6-10.6,4.3c-5.3-0.3-9.2-4-11.9-9.4c-2-4-3.2-9-3.7-14.2c-1.5-15.9,3.6-34.3,15.6-36.7c0,0,0.2-0.4,0.6-1
			c2.2-3.1,10.2-12.5,24.4-12.6c18.6-0.1,26,8.8,26,8.8s5.4,2.9,8.7,7.3c0,0,0,0,0,0c1.4,1.9,2.4,4,2.4,6.3
			C247.2,77.9,238.9,81.9,240.8,84.6z"/>
		<path class="st4" d="M208,158.1c0,0-14.9,6.8-17.3-3.4s1.9-28.3,1.9-28.3C192.1,129.2,198.2,158.3,208,158.1z"/>
		<path class="st4" d="M223.2,153.8c-3,9.8-15.2,4.3-15.2,4.3s11.3-9.4,10.1-29.9c-0.1-1.2-0.1-2.3-0.2-3.3
			C217.8,124.9,226.2,144,223.2,153.8z"/>
		<path class="st6" d="M375.8,167.3c0,0-4.3-3.6-8.1-4.1c-6.3-0.9-11.5,3-11.5,3s13.2-38.2,13.2-45.6v-1.1
			C377.2,128.8,375.8,167.3,375.8,167.3z"/>
		<path class="st6" d="M356.2,166.2c-0.3-0.1-4.8-2.4-8.8-2.3c-4.1,0.2-7.6,3.4-7.6,3.4s-3.4-38.6,6-45.1
			C346.3,131.9,348.8,159.2,356.2,166.2z"/>
		<path class="st3" d="M149.2,203.6c-6.9-0.8-11.4-2.7-14.3-4.4c0.8,0.8,7.6,6.6,14.3,7.4c7.2,0.9,11.5,0.1,9,5.8
			c-2.2,5-14.4,16.2-17.1,18.5c0,0,0,0,0,0c-13.8,9.5-30.7,20.1-35.3,23.3c-7.9,5.6-4.8,13.7-10.8,19.5c-6,5.8-20.1-7.5-21.1-10.7
			c-1.1-3.2,1.4-6.7,5.8-10.5c4.4-3.9,7.5-7.7,10.7-8.4c3.2-0.7,36.1-32.1,39.7-35.7c2-2.1,3.7-6.2,4.7-9.3c0,0,0,0,0,0c0,0,0,0,0,0
			c0.8-2.3,1.2-4.1,1.2-4.1l4.3,0.6l23.2,3c0,0-0.1,2.1-0.5,5C160,204.1,155.4,204.3,149.2,203.6z"/>
		<path class="st4" d="M170.1,194.5c-0.6,4.4-1.1,7.2-1.1,7.2s-1.7,1.2-5.8,1.9c-1.5,0.2-3.2,0.4-5.3,0.5c-2.4,0.1-5.3-0.1-8.6-0.5
			c-6.9-0.8-11.4-2.7-14.3-4.4c0,0,0,0,0,0c0,0-0.1,0-0.1,0c-0.7-0.4-1.3-0.9-1.8-1.3c-1.7-1.3-2.3-2.3-2.3-2.3s8.5-26.7,12.9-37.5
			v0c0.6-1.5,1.2-2.7,1.6-3.5c3.5-6,14.6-12.3,14.6-12.3C175.8,141.5,172.3,178.5,170.1,194.5z"/>
		<path class="st3" d="M257.5,203c2.9,3.4,9.1,10.8,12.6,14.7c-13.7,10.3-27,18.9-28,22.2c-1.8,5.7-0.5,16.5-6.2,17.2
			c-5.7,0.8-16.8-7-17.7-12.6C217.5,240.9,241.2,219,257.5,203z"/>
		<path class="st3" d="M271.6,187.7c0.2,3.9,6.3,13.2,11.2,19.8c-0.9,0.8-1.8,1.5-2.7,2.3c-0.5,0.4-1,0.9-1.6,1.3
			c-2.2,1.8-4.5,3.5-6.7,5.3c-4.1-4.3-8.9-9.4-13.2-14.5c2.1-2,4-4,5.7-5.8c0.3-0.4,0.7-0.7,1-1
			C268.4,191.8,270.6,189.3,271.6,187.7z"/>
		<path class="st3" d="M296.4,193.8c-3.1,4.1-7.3,8.3-12,12.4l-12.2-19.6c0-0.2,0-0.3,0-0.4c-0.3-0.6-0.7-1.1-1.2-1.6l0,0
			c-1-1-2.4-2-3.9-2.8c-2.8-1.6-5.7-2.7-5.7-2.7l14.6-17.6c0,0,1.3,0.5,3.3,1.5c4.8,2.3,13.5,7.3,17.9,13.9
			C300.3,181.7,301.2,187.4,296.4,193.8z"/>
		<path class="st15" d="M241,133.3c-0.9-1.4-2.1-2.6-3.4-3.6l0.4,0.2c0,0,0.1,0,0.1,0.1C239.2,130.9,240.2,132,241,133.3z"/>
		<path class="st15" d="M253,181.3c0.1-0.4,0.1-0.8,0.2-1.3C253.1,180.4,253.1,180.9,253,181.3L253,181.3z"/>
		<path class="st4" d="M281.2,157.9c0,0-0.5,1.8-2,5c-2,4.3-5.7,11-12.2,18.9c-1.2,1.4-2.5,2.9-3.9,4.4l-7-3.4
			c1.4-4.6,0.7-8.5-1.8-13.5c-2.7-5.6-9.8-27.7-9.9-31.7c0-1.5-0.6-3-1.2-4.3l35,22.6h0L281.2,157.9z"/>
		<path class="st2" d="M218.1,129.5c-9.9,0.2-18.1-9.1-18.1-9.1c3.5,1.9,8.5,3.6,15.3,4c0.9,0,1.7,0,2.5,0c0,0.2,0,0.4,0,0.6
			c0.1,1,0.1,2.1,0.2,3.3C218,128.7,218.1,129.1,218.1,129.5z"/>
		<path class="st2" d="M163.1,203.6c-0.4,3.6-1.2,8.3-2.5,11.6c-0.6,1.6-4.3,4.8-9.5,8.7c-2.9,2.2-6.3,4.6-10,7.1
			c1.5-1.4,6.3-5.7,10.5-10.2c3-3.1,5.6-6.3,6.6-8.4c1.6-3.5,0.5-4.6-2.3-5c-1.7-0.3-4-0.4-6.7-0.7c-6.7-0.8-13.4-6.7-14.3-7.4
			c2.8,1.7,7.4,3.6,14.3,4.4c3.3,0.4,6.2,0.5,8.6,0.5C159.9,204,161.7,203.8,163.1,203.6z"/>
		<path class="st2" d="M271.9,216.2c-0.6,0.5-1.2,0.9-1.8,1.4c-3.4-3.9-9.7-11.3-12.6-14.7c0.4-0.4,0.8-0.8,1.2-1.2
			C263,206.9,267.8,211.9,271.9,216.2z"/>
		<path class="st2" d="M284.3,206.2c-0.5,0.4-1,0.8-1.5,1.3c-5-6.6-11-15.9-11.2-19.8c0.3-0.5,0.5-0.9,0.5-1.1L284.3,206.2z"/>
		<path class="st9" d="M187.9,201.8c0,0-5.9,7.3-12.7,6.8c-6.8-0.5-7.8,0-9.5,9c-1.1,5.5-2.1,24.2-1.6,40.2c0.1,3.3,0.3,6.5,0.5,9.4
			c0.2,2.6,0.5,5,0.9,7.1c-9.9-5.5-15.8-11.4-15.8-11.4c-0.1-1-0.2-2.8-0.3-5.1c-0.2-7.8,0-21.9,1.9-34c5.2-3.9,8.9-7.1,9.5-8.7
			c1.3-3.3,2-8,2.5-11.6c4.1-0.7,5.8-1.9,5.8-1.9s0.5-2.8,1.1-7.2c2.3-16,5.7-53-10.2-52.2c8.4-6.3,25.3-13.2,32.3-15.9l0.3,0.1
			c0,0-27.3,11.6-23.6,15.8c3.7,4.3,7.7,12.3,7,28.6s-6.3,31.9-1.5,33.1C179.2,205.3,187.9,201.8,187.9,201.8z"/>
		<path class="st9" d="M222.3,194.8c0,0,7.1,5.5,14.4,4.2c7.3-1.2,8.6-4.2,8.6-4.2S233.2,199,222.3,194.8z"/>
		<path class="st16" d="M256.2,182.8l-3.2-1.5c0.1-0.4,0.1-0.8,0.2-1.3c0-0.7,0.1-1.4,0-2.2c0-0.1,0-0.2,0-0.3
			c-0.1-1.6-0.4-3.5-0.9-5.7c-2.3-9.8-8.2-24.8-9.9-35.1c-0.2-1.2-0.7-2.3-1.4-3.4c-0.7-1.3-1.7-2.4-2.9-3.3c0,0-0.1,0-0.1-0.1
			l-0.4-0.2c-0.1-0.1-0.1-0.1-0.2-0.2l5.9,3.8c0.7,1.3,1.2,2.8,1.2,4.3c0.1,3.9,7.2,26.1,9.9,31.7
			C256.9,174.3,257.6,178.2,256.2,182.8z"/>
		<path class="st5" d="M216.9,286c-6.7,1.2-18.9,2.9-30.9,1.7c-13.9-1.3-30.4-13.6-37.3-19.3c0.4-3.5,0.9-5.6,0.9-5.6
			s5.9,5.9,15.8,11.4c8,4.4,18.6,8.6,30.8,9.1c4.1,0.2,8.4-0.1,12.8-0.9c0.4-0.1,0.9-0.2,1.3-0.2C212.3,283.3,214.5,284.6,216.9,286
			z"/>
		<path class="st5" d="M206.8,341.7l-5.2,22c-1.3,1.9-2.6,3.7-4,5.6l4.5-24.5l-25.7-18.9c0.5-1,0.9-1.5,1.4-2.4
			C188.8,330.4,206.8,341.7,206.8,341.7z"/>
		<path class="st3" d="M164,416.2c-7.6,10.5-12.6,17.3-12.6,17.3s-0.3,1.7-0.9,4.2c-1.7,7.6-5.5,23.2-8.6,26.3
			c-4.1,4.1-17-2.3-16-8.3c0.9-6,7.7-20.1,7.5-22.7c0-0.5,0-1,0.1-1.5c0.3-2,1.3-3.8,2.7-5.3c0.5-0.5,4-10.2,9-23.8
			C145.1,402.5,149.7,415.7,164,416.2z"/>
		<path class="st3" d="M220.2,421.3C210.1,439,201.3,453.5,198,459c-1,1.6-1.5,2.4-1.5,2.4s-1.9,2.4-9.4,0c-4.6-1.5-6.3-3.6-6.8-5
			c0,0,0,0,0,0c-0.3-0.9-0.3-1.4-0.3-1.4l10.9-45.7c0,0,1.7,5.4,12.4,9.4C214,422.6,220.2,421.3,220.2,421.3z"/>
		<path class="st2" d="M369.4,113.2c0,0-4.6,6.6-11.1,9.4c-6.5,2.7-10.9,1.4-10.7,7.3c0.2,5.9,5.1,32.7,8.5,36.3
			c-7.4-7-9.8-34.2-10.5-44c0-0.5-0.1-0.9-0.1-1.3c0.3,0.1,0.6,0.2,0.9,0.3c0.3,0.1,0.7,0.2,1.1,0.3c2,0.5,9.3-1.9,15.2-4.6
			c2.1-1,4.1-2,5.6-3c0,0,0,0,0,0c0.1,0,0.1-0.1,0.2-0.1C368.9,113.6,369.2,113.4,369.4,113.2L369.4,113.2z"/>
		<path class="st5" d="M407,186.1c-3.4-2.4-5.7-6.1-6.4-10.3c-2.4-15.2-6-45,3.9-42.4c0,0-6.3,9-3.8,27.7c1.3,9.5,3.8,16.2,6,20.6
			C406.9,183.2,407,184.6,407,186.1z"/>
		<path class="st16" d="M332.9,221.7c0,0,3.4,5,13.4,5.9s14.9-2.9,14.9-2.9S342.5,225.1,332.9,221.7z"/>
		<path class="st16" d="M349.5,231.8c0,0,5.4,5.5,18.2,4.3c12.8-1.2,18.1-7.2,18.1-7.2S362.4,233.8,349.5,231.8z"/>
		<path class="st16" d="M398,258.6L398,258.6c-16.2,2.5-45.8,3.2-61.7-1.1c0,0-13.1,0.6-21.7-5.4c-4.8-3.4-3.1-16.3-0.7-30
			c-0.6,3.8-2.7,22.1,7.1,25.3c10.9,3.6,14.3,5.8,17,2.6c2.6-3.2,3.8-6.4,4.9-4.9c1.1,1.5-5.9,8.3,4.8,8.9
			C358.3,254.6,378.7,261.2,398,258.6z"/>
		<g>
			<path class="st17" d="M410.1,216.7l-8.3-11.2l-10.9-14.8l-14.6,29.6l-17.2-29l-17.9,24.8l-12.8-25.1c-5.3,6-8.9,9.8-11.3,12.3
				c0.5-3.8,0.8-7.3,0.7-10.3c0-0.8,0-1.7,0-2.7c2.7-3,5.7-6.2,8.5-9.4l4-4.5l12.1,23.8l17.3-24.1l15.9,26.7l13.9-28l12.9,17.4
				l4,5.4l1.7,2.2l0,0.3c0.2,2.2,0.4,3.9,0.6,4.9C409,207.4,409.5,211.6,410.1,216.7z"/>
		</g>
		<path class="st11" d="M409.9,258.3c-5.5,2.3-15.5,6-28.2,8.5c-19.6,3.8-43.1-5.5-50.7-4.9c-5.6,0.4-12-2.6-15.1-4.1l1.5-4
			c8.3,4.3,18.9,3.7,18.9,3.7c15.9,4.3,45.5,3.6,61.7,1.1c5.1-0.8,8.8-1.7,10.4-2.8C408.8,256.6,409.3,257.5,409.9,258.3z"/>
		<path class="st11" d="M387.3,323.5c-0.6,7.8-38.1,67-48.8,83.8c-3.1-4.5-4.2-7.7-4.2-7.7s52-69.3,48.6-77.2
			c-3.3-7.8-20.9-34.6-21.4-35.4C362.3,287.8,388.1,314.5,387.3,323.5z"/>
		<path class="st11" d="M291.8,440.3L361.5,287c0,0,0,0,0,0.1l-60.3,150.6C301.2,437.7,298.2,440.1,291.8,440.3z"/>
		<path class="st11" d="M304.6,332c0,4.7-3.8,8.5-8.5,8.5c-3.9,0-7.2-2.7-8.2-6.3l3.4-9.2c1.4-0.9,3-1.5,4.8-1.5
			C300.8,323.5,304.6,327.3,304.6,332z"/>
		<path class="st11" d="M438.3,326.5c-0.5,2-1.5,4.7-2.9,7.8c-4.1-0.6-7.3-4.1-7.3-8.4c0-4.7,3.8-8.5,8.5-8.5c0.5,0,1,0,1.5,0.1
			C438.8,321,438.9,324.1,438.3,326.5z"/>
		<path class="st2" d="M287.5,440.2c-0.6,1.9-1.2,4-1.8,5.9c-3.2-0.5-7.1-1.3-11.3-2.8c-5.5-1.9-9.3-4.9-11.7-7.3v0
			c0.7-1.9,1.3-3.8,1.9-5.3c3.2,2.5,7.4,5,12.9,7C281.3,439.1,284.7,439.8,287.5,440.2z"/>
		<path class="st2" d="M362.6,426.8l-3.1,4.3c-2.7-0.7-6-1.9-9.7-4.2c-5-3.2-8.7-6.9-11.2-9.8l3.2-5.5c2.7,3.1,6.3,6.5,10.9,9.9
			C356.4,424,359.7,425.7,362.6,426.8z"/>
		<path class="st2" d="M429.4,184.5c-0.1,0.3-2,5.2-8.8,7.1c-7,1.9-9.5,1.7-9.2,4.4c0.2,1.6-1.8,3.2-3.4,4.3l0-0.3
			c-0.1-1-0.2-2.1-0.3-3.2c1.3-1,2-2.2,1.4-3.2c-0.8-1.3-1.5-3.6-2-5.9c0-0.5-0.1-1-0.1-1.6c1.1,0.8,2.4,1.5,3.7,1.9c0,0,0,0,0,0
			c1,0.3,2,0.6,3,0.7c2.2,0.3,4.6,0.3,7-0.3C425.1,187.4,427.8,185.9,429.4,184.5z"/>
		<ellipse class="st13" cx="218.9" cy="92.4" rx="1.2" ry="2.7"/>
		<ellipse class="st13" cx="228.8" cy="91.7" rx="1.2" ry="2.7"/>
		<path class="st2" d="M222.6,102.5c0,0,0.3,1.3,2.5,1c2.3-0.3,2.4-1.7,2.4-1.7L222.6,102.5z"/>
		<path class="st14" d="M215.6,108.7c0,0,15.2-1.9,14.9,0c-0.3,1.9-2.4,8.7-8.4,8.4C216.3,116.8,213.9,109.7,215.6,108.7z"/>
		<path class="st18" d="M185.4,60.3c-0.4,0.6-0.6,1-0.6,1c-11.9,2.4-17.1,20.8-15.6,36.7c-0.4,0.3-0.8,0.5-1.2,0.6
			c-2.7-16.4,2.2-37.3,14.8-40.2C183.8,59,184.7,59.7,185.4,60.3z"/>
	</g>
</g>
</svg>
